<svg width="24" height="24" viewBox="0 0 24 24" fill="none" xmlns="http://www.w3.org/2000/svg">
<path d="M20.9683 9.35147L15.3586 8.63529L14.6546 3.06966C14.4983 1.83151 13.2799 1 11.9977 1C10.7292 1 9.51383 1.79964 9.35147 3.03173L8.63528 8.64136L3.06966 9.3454C1.80571 9.51079 1 10.7201 1 12.0023C1 13.2844 1.76323 14.4953 3.03173 14.6485L8.64135 15.3647L9.3454 20.9303C9.50169 22.217 10.7201 23 12.0023 23C13.2708 23 14.5013 22.1366 14.6485 20.9683L15.3647 15.3586L20.9303 14.6546C22.2019 14.4938 23 13.2799 23 11.9977C23 10.7156 22.2019 9.50624 20.9683 9.35147Z" fill="#7C4DFF"/>
</svg>
